PathFileType	4	(X/Y/Z)	C:\Users\dbl\Desktop\LZH\BX\Trimmed_Trimmed_Trimmed_Trimmed_bx_n_5_1801.trc
DataRate	CameraRate	NumFrames	NumMarkers	Units	OrigDataRate	OrigDataStartFrame	OrigNumFrames
50.00	50.00	       5	43	mm	50.00	254	       290
Frame#	Time	Top.Head			R.Acromium			L.Acromium			Sternum			R.ASIS			L.ASIS			V.Sacral			R.Thigh.Upper			R.Thigh.Front			R.Thigh.Rear			R.Knee.Lat			R.Knee.Med			R.Shank.Upper			R.Shank.Front			R.Shank.Rear			R.Ankle.Lat			R.Midfoot.Lat			R.Toe.Lat			R.Toe.Tip			R.Toe.Med			R.Ankle.Med			R.Midfoot.Sup			R.Heel			L.Thigh.Upper			L.Thigh.Front			L.Thigh.Rear			L.Knee.Lat			L.Knee.Med			L.Shank.Upper			L.Shank.Front			L.Shank.Rear			L.Ankle.Lat			L.Midfoot.Lat			L.Toe.Lat			L.Toe.Tip			L.Toe.Med			L.Ankle.Med			L.Midfoot.Sup			L.Heel			origin1 front left			origin2 front right			origin 3 back right			origin 4 back leftt			
		X1	Y1	Z1	X2	Y2	Z2	X3	Y3	Z3	X4	Y4	Z4	X5	Y5	Z5	X6	Y6	Z6	X7	Y7	Z7	X8	Y8	Z8	X9	Y9	Z9	X10	Y10	Z10	X11	Y11	Z11	X12	Y12	Z12	X13	Y13	Z13	X14	Y14	Z14	X15	Y15	Z15	X16	Y16	Z16	X17	Y17	Z17	X18	Y18	Z18	X19	Y19	Z19	X20	Y20	Z20	X21	Y21	Z21	X22	Y22	Z22	X23	Y23	Z23	X24	Y24	Z24	X25	Y25	Z25	X26	Y26	Z26	X27	Y27	Z27	X28	Y28	Z28	X29	Y29	Z29	X30	Y30	Z30	X31	Y31	Z31	X32	Y32	Z32	X33	Y33	Z33	X34	Y34	Z34	X35	Y35	Z35	X36	Y36	Z36	X37	Y37	Z37	X38	Y38	Z38	X39	Y39	Z39	X40	Y40	Z40	X41	Y41	Z41	X42	Y42	Z42	X43	Y43	Z43	

254	5.060	-713.55701	245.22362	1821.95215	-656.14795	75.22353	1540.41650	-638.13861	423.38748	1548.36316	-536.98395	245.66536	1357.90320	-543.19580	114.08462	1038.45496	-522.04590	342.15372	1042.73779	-735.60248	238.98222	1050.37659	-619.09613	69.12218	836.37769	-527.78668	128.40842	813.44220	-620.89410	88.00146	725.53705	-657.80988	113.29384	606.97839	-628.62762	221.14911	568.05981	-686.69678	117.17072	540.50812	-606.39606	161.08771	527.52411	-696.83551	111.17119	489.51202	-687.89685	147.52475	211.72137	-610.85266	87.32753	162.86989	-562.72833	66.91809	161.04803	-484.19037	112.25200	158.54126	-530.72626	161.50063	166.61125	-637.20752	222.13982	221.69701	-595.07532	198.18881	173.36111	-720.39008	215.91466	171.57864	-609.64398	426.62045	859.88855	-526.55682	375.86658	819.77563	-633.30811	411.32535	746.84467	-648.16455	393.19287	611.61298				-662.26715	394.30734	563.75079	-601.43274	342.58966	541.76715	-716.50183	395.74146	500.35370	-678.64203	397.56683	216.02228	-583.02490	450.60626	164.25867	-543.87103	460.14648	157.32425	-479.81760	409.58994	166.34531	-524.52136	371.00229	177.86865	-641.91992	308.42798	209.10370	-594.05164	330.52759	169.03755	-731.64978	327.13373	162.21024	-443.77133	448.57516	147.32166	-450.38419	74.77244	143.84415	-806.36078	82.50292	141.71896	-799.64209	456.49844	145.00356	
255	5.080	-714.41150	246.12189	1822.03699	-657.05505	75.72062	1540.26453	-639.06500	423.76590	1548.59680	-537.46997	246.22433	1357.89270	-542.98859	114.52658	1038.29700	-521.60931	342.64926	1042.73816	-735.29602	239.52965	1050.49207	-619.15015	69.66883	836.46088	-527.88812	128.86189	813.29205	-621.15778	88.29903	725.57269	-658.34729	113.45736	606.97644	-629.05902	221.42790	567.95721	-687.31177	117.25504	540.53003	-606.87891	161.35518	527.57281	-697.43457	111.43682	489.51199	-687.92786	147.54851	211.80208	-610.93048	87.21157	162.89632	-562.71088	66.91525	161.08838	-484.14899	112.20083	158.53967	-530.70569	161.50055	166.58510	-637.33569	222.11792	221.60019	-595.14148	198.14529	173.28334	-720.41302	215.92944	171.58945	-609.43365	426.89172	859.65784	-526.46503	376.13815	819.48682	-633.33026	411.72345	746.86310	-648.49512	393.36624	611.51526				-662.64642	394.57474	563.77509	-601.81805	342.80679	541.59747	-716.94525	395.94775	500.25980	-678.73773	397.59076	216.01649	-583.05121	450.65985	164.21497	-543.87140	460.23160	157.30965	-479.75598	409.59341	166.36687	-524.52728	370.98160	177.85927	-641.95361	308.61249	209.25543	-594.22955	330.62442	168.84843	-731.62494	327.08591	162.21953	-443.77274	448.59622	147.30716	-450.40372	74.78024	143.87756	-806.37836	82.45122	141.71252	-799.64569	456.46100	145.02576	
256	5.100	-715.07550	246.93887	1822.15259	-657.93622	76.23125	1540.06506	-639.83887	424.07385	1548.79443	-537.92230	246.79590	1357.84937	-542.80835	114.91498	1038.20215	-521.17377	343.08298	1042.62439	-734.98022	240.16765	1050.62207	-619.24927	70.16034	836.61188	-528.04547	129.22832	813.08240	-621.43347	88.56092	725.61902	-658.83331	113.68587	606.94354	-629.35187	221.68413	567.86517	-687.85602	117.35419	540.63947	-607.29272	161.57498	527.61401	-697.90826	111.68844	489.52057	-687.91559	147.63390	211.84424	-610.88641	87.13162	163.01482	-562.68219	66.89644	161.14442	-484.08765	112.15902	158.51401	-530.65234	161.49837	166.54150	-637.30646	222.15752	221.55844	-595.26556	198.11292	173.14355	-720.36603	215.88982	171.60278	-609.15253	427.15375	859.36975	-526.36621	376.30493	819.20129	-633.33228	412.04773	746.84778	-648.89966	393.60297	611.46533				-663.07843	394.84515	563.77844	-602.32062	342.94775	541.49060	-717.44885	396.31778	500.21878	-678.80872	397.63525	216.01427	-583.07147	450.70999	164.19632	-543.86346	460.32227	157.30186	-479.69440	409.54773	166.37195	-524.53351	370.93268	177.84973	-641.99738	308.71555	209.32773	-594.27386	330.69150	168.80099	-731.62933	327.06671	162.24998	-443.76953	448.61517	147.33757	-450.40213	74.79061	143.88959	-806.35413	82.39962	141.68773	-799.65112	456.44479	145.05690	
257	5.120	-715.57483	247.68269	1822.22473	-658.79663	76.78937	1539.86719	-640.48816	424.35104	1548.96118	-538.29993	247.35663	1357.82434	-542.66119	115.34091	1038.11694	-520.73590	343.45343	1042.34680	-734.67603	240.83792	1050.78845	-619.39380	70.55367	836.76349	-528.18250	129.52954	812.86249	-621.69568	88.84691	725.64038	-659.18951	114.00439	606.90540	-629.61316	221.96268	567.84399	-688.29297	117.56627	540.78143	-607.64465	161.79874	527.65259	-698.24316	111.90163	489.55490	-687.85126	147.77196	211.86995	-610.73944	87.10457	163.19295	-562.64850	66.87370	161.19826	-484.01999	112.13699	158.46004	-530.59479	161.49919	166.49800	-637.08307	222.30701	221.62891	-595.40472	198.07974	173.00806	-720.19800	215.77391	171.60721	-608.82379	427.44748	859.08459	-526.26996	376.39334	818.95667	-633.34839	412.26855	746.75995	-649.31409	393.90881	611.45654				-663.56006	395.10394	563.74255	-602.90424	343.04523	541.43842	-717.91235	396.77344	500.21606	-678.86005	397.69080	216.02615	-583.08972	450.75531	164.18913	-543.86469	460.39996	157.26170	-479.65195	409.46039	166.32837	-524.52838	370.88031	177.83769	-642.02905	308.74655	209.34691	-594.23438	330.74109	168.84753	-731.67676	327.09906	162.28891	-443.75705	448.61725	147.38457	-450.38599	74.80359	143.88684	-806.30884	82.37757	141.67596	-799.65918	456.46075	145.08223	
258	5.140	-715.94116	248.36389	1822.23096	-659.61115	77.39336	1539.71924	-641.00604	424.68820	1549.12781	-538.61041	247.84514	1357.83752	-542.55756	115.84261	1037.99072	-520.29822	343.76929	1041.97498	-734.39526	241.48122	1050.98828	-619.56036	70.88017	836.85675	-528.25531	129.80014	812.66742	-621.92780	89.16263	725.61957	-659.43768	114.36905	606.87378	-629.93225	222.27243	567.89709	-688.62622	117.88816	540.91571	-607.95319	162.05922	527.67151	-698.47919	112.07844	489.59839	-687.74603	147.93044	211.91351	-610.59985	87.12051	163.32732	-562.61792	66.87207	161.23235	-483.96439	112.12643	158.39948	-530.55511	161.50212	166.46545	-636.80292	222.49507	221.73515	-595.50244	198.06714	172.93150	-719.95300	215.62715	171.61066	-608.51849	427.77789	858.86523	-526.19763	376.46478	818.75043	-633.41968	412.41461	746.58508	-649.69977	394.26132	611.48297				-664.07214	395.34476	563.67133	-603.50146	343.18396	541.40778	-718.29553	397.18246	500.20844	-678.91296	397.74716	216.05797	-583.11163	450.79410	164.18195	-543.88953	460.44180	157.17780	-479.63507	409.34290	166.22037	-524.51154	370.84470	177.81343	-642.06586	308.75491	209.35333	-594.22290	330.79932	168.90462	-731.75104	327.16718	162.31593	-443.73349	448.59354	147.41066	-450.37253	74.81818	143.88895	-806.28979	82.39807	141.67839	-799.67126	456.48828	145.07230	
